<svg width="71" height="70" viewBox="0 0 71 70" fill="none" xmlns="http://www.w3.org/2000/svg">
<path fill-rule="evenodd" clip-rule="evenodd" d="M35.1917 0C15.7316 0 0 15.8529 0 35.465C0 51.1421 10.0798 64.4124 24.0631 69.1092C25.8113 69.4622 26.4517 68.3461 26.4517 67.4071C26.4517 66.585 26.3941 63.7667 26.3941 60.8304C16.6046 62.9446 14.5661 56.6027 14.5661 56.6027C12.9928 52.4925 10.6618 51.4361 10.6618 51.4361C7.45772 49.2635 10.8952 49.2635 10.8952 49.2635C14.4494 49.4984 16.3143 52.9039 16.3143 52.9039C19.4601 58.3054 24.5291 56.7792 26.5684 55.8396C26.8594 53.5496 27.7923 51.9643 28.7828 51.0837C20.975 50.2615 12.7602 47.2084 12.7602 33.5858C12.7602 29.7105 14.1576 26.5399 16.372 24.074C16.0226 23.1935 14.7987 19.5524 16.7221 14.679C16.7221 14.679 19.6935 13.7394 26.3934 18.3194C29.2619 17.5431 32.2201 17.1482 35.1917 17.1449C38.1631 17.1449 41.1921 17.5563 43.9892 18.3194C50.6898 13.7394 53.6613 14.679 53.6613 14.679C55.5846 19.5524 54.36 23.1935 54.0106 24.074C56.2833 26.5399 57.6232 29.7105 57.6232 33.5858C57.6232 47.2084 49.4084 50.2024 41.5422 51.0837C42.8244 52.1992 43.9309 54.3127 43.9309 57.6598C43.9309 62.4156 43.8732 66.2326 43.8732 67.4064C43.8732 68.3461 44.5143 69.4622 46.2619 69.1099C60.2452 64.4117 70.325 51.1421 70.325 35.465C70.3826 15.8529 54.5934 0 35.1917 0Z" fill="#24292F"/>
</svg>
